<svg xmlns="http://www.w3.org/2000/svg" width="500" height="600" style="overflow:visible">
    
    <svg viewBox="0 0 500 600" preserveAspectRatio="xMidYMin slice" width="500" height="600" style="overflow:visible">
      <g transform=" translate(250,300) scale(1) translate(-250,-300) translate(0,0)">
            <svg xmlns="http://www.w3.org/2000/svg" width="500" height="600" style="overflow:visible">
    
    <svg viewBox="0 0 500 600" preserveAspectRatio="xMidYMin slice" width="500" height="600" style="overflow:visible">
      <g transform=" translate(250,300) scale(1) translate(-250,-300) translate(0,0)">
        <svg xmlns="http://www.w3.org/2000/svg" viewBox="0 0 500 600"><path d="M286.1,119.5a11.7,11.7,0,0,0-.5-2l-.7-1.2-.8-.8-.9-.5a3.5,3.5,0,0,0-1.1-.3h-1.9c-.1-3.5-.3-6.9-.7-10.3a16.4,16.4,0,0,0-.2-2.2c-.5-6.1-1.6-12.5-5.9-17.1s-11.7-4.9-17.7-5-13.5,0-19.8,2.4a22.2,22.2,0,0,0-9.5,6.5c-2.6,3.2-3.8,7.1-4.7,11a64.1,64.1,0,0,0-2,14.4l-.2-.2h-.4l-1.4-.2h-.8l-.8.3a1.8,1.8,0,0,0-.7.5,2.7,2.7,0,0,0-.7.8,6.7,6.7,0,0,0-.8,1.7,13.3,13.3,0,0,0-.6,3,12.2,12.2,0,0,0,.3,3.8,14.2,14.2,0,0,0,1.1,3.3,15.3,15.3,0,0,0,1.4,2.1,6.5,6.5,0,0,0,1.6,1.3,4,4,0,0,0,1.6.8l.6.2.8.3h.8l.2-.2a54.7,54.7,0,0,0,2.6,8.1c3,7.6,7.9,15,15.4,18.4s19.2,1.5,26.4-4.5,11-14.3,12.8-23.1l2.3-.7,1.4-.9a8.6,8.6,0,0,0,1.3-1.4,12,12,0,0,0,1.3-2.1,19.2,19.2,0,0,0,.9-3.2A16,16,0,0,0,286.1,119.5Z" fill="#ffffff" stroke="#000" stroke-linecap="round" stroke-linejoin="round" stroke-width="1.5"/><path d="M218.3,120.7c-2.7.8-1.4,4.6.8,5.1" fill="none" stroke="#000" stroke-linecap="round" stroke-linejoin="round" stroke-width="0.5"/><path d="M282.2,119.7c1.4.8.7,4.6-.4,5.1" fill="none" stroke="#000" stroke-linecap="round" stroke-linejoin="round" stroke-width="0.5"/><path d="M282.1,109.9a56,56,0,0,0-1.4-10c-.1-.9-.5-1.8-.7-2.8a14.1,14.1,0,0,1,.5-2.7,57.2,57.2,0,0,0,.2-5.9V82.2a24.2,24.2,0,0,0-.3-4.6,22.5,22.5,0,0,0-.5-2.2,18.7,18.7,0,0,0-1.7-3.1,23.9,23.9,0,0,0-1.3-2.8,17.1,17.1,0,0,1-1.2,4.7c-1.6-4.5-3.3-9-4.9-13.6-.9,3.1-1.8,6.1-2.8,9.1a25.9,25.9,0,0,1,.4-4.8,30,30,0,0,1-2.3,6,16.7,16.7,0,0,0-2.4-7.8,15.8,15.8,0,0,0-4.4-4.5,19.2,19.2,0,0,1,1.4,5.6,5.5,5.5,0,0,0-2.7-2.9,10.6,10.6,0,0,0,.4,3.1,2.9,2.9,0,0,0-1.5-1.7,8.2,8.2,0,0,1-.1,4.9c-1,2.3-3.3,1.3-4.3-1.1s-.8-5.6-.7-8.5a47.5,47.5,0,0,0-5.2,11.1,18.5,18.5,0,0,0-.1-2.4c-.2-.7-.7-1.3-1.1-1.1a1.1,1.1,0,0,0-.6.7,19.2,19.2,0,0,0-1.8,3.5c.1-1,.1-2.1.2-3.2l-.8,2.3c.1-.7-.4-1.3-.9-1.2s-.8.6-1.3.4-.6-.5-1-.3a7.3,7.3,0,0,0-.5.9c-.7,1.1-1.8-.2-2.6-1.3a5.9,5.9,0,0,0-3.9-2.5,10.8,10.8,0,0,1,1.1,4.1,6.2,6.2,0,0,0-4.9-2.6,54.7,54.7,0,0,1,1.2,10c-1.3-1-2.3-3.2-2.5-5.7A48.2,48.2,0,0,0,225.6,81a30.5,30.5,0,0,1-1.4-5.4,72.7,72.7,0,0,0-1.4,10.7,5.4,5.4,0,0,0-.3-1.9c-.2-.6-.7-.9-1-.5s-.2,1.2-.2,1.8l.3,3.4a6.4,6.4,0,0,0-2.8-3.5c.4,1.1.7,2.2,1,3.3a19.1,19.1,0,0,1,.5,7.9c-1.4,9.1-1.5,10.7-1.6,14.9-.2,7.2,1.8,13.4,2.3,13.3s0-2.1.1-8.3a113.2,113.2,0,0,1,.9-14.3,4.8,4.8,0,0,1,.7-2.1,33,33,0,0,1,3.2-4,17.3,17.3,0,0,1,9.9-4.9,14.7,14.7,0,0,1,5.9.5c3.4.9,6.4,3,9.9,3s5.8-1.6,8.7-2.6a21.4,21.4,0,0,1,11.5-.7,4,4,0,0,1,2.4,2,47.6,47.6,0,0,1,3.1,4.7c2.7,4.8,2.2,11.3,2.7,16.8s.2,7.9.4,7.9S282.4,116.8,282.1,109.9Z"/><path d="M257.9,78.9l.7-1v.5c0-.7,1.1-1.8,1.7-2a5.5,5.5,0,0,1-.2,1.8c.2-1.3,1.7-2.3,2.7-3l4.1-3.2c-.3,0-1.4,1.6-1.6,1.9a22.5,22.5,0,0,1-1.2,2.1,30.6,30.6,0,0,0-2.6,5.1c.7-1.8,2.8-2.8,4.4-3.6-1.6.8-2.1,2.5-3,3.9.4-.7,1.5-1.2,2.1-1.8s.9-.9,1.1-.7,0,.6-.2.8a5.9,5.9,0,0,1,1.8-1.4,28.3,28.3,0,0,1-2,2.8,12.7,12.7,0,0,1,3.1-2c-1.4.7-2.1,2-2.9,3.2s-2.2,2.9-3.2,4.4a6.9,6.9,0,0,0,1.2-3.1,4.4,4.4,0,0,0-1.5,1.2,4.4,4.4,0,0,0,.2-1,1,1,0,0,1-.9.3c-.7-.1-.5-.3-.6-.8s-.3-1.2-1.1-.4-1.1,1.4-1.7,2.1c1.1-1.1.8-3.4,1.8-4.6-1.4,1.6-2.7,3.3-4,4.9a15.2,15.2,0,0,1,.3-2.1l.6-3a14.7,14.7,0,0,1-2.3,4.7,22.9,22.9,0,0,1,1.1-5.2,13.1,13.1,0,0,1,.9-2.8c.2-.6,1.1-1.9,1-2.5A13.7,13.7,0,0,1,257.9,78.9Z" fill="#fff" opacity="0.3"/><path d="M229.9,83.7c.1,0,.2.2.2.3h-.8c-.3.1-.6.3-.5.6l.2.3c.9.7,1.1,2,1.9,2.8v-2a4.7,4.7,0,0,0-.5-1,7.5,7.5,0,0,0-.7-1.2.8.8,0,0,0-.2-.4c-.1-.2-.1-.4.1-.5l.8.2.8.3a1.5,1.5,0,0,1-.4-.9c.1-.4.6-.6.8-.3a5.5,5.5,0,0,1-.1-1.8,1.8,1.8,0,0,1,.9.8l-.5-3.4a7.7,7.7,0,0,1-.2-1.5,6.6,6.6,0,0,1,.1-1.4,1.3,1.3,0,0,1,.1-.6,2.1,2.1,0,0,1,.2-.6c.4-.3.7.7.7.8a12.3,12.3,0,0,0,1.2,2.6l.8,1.2.4.4.3.3a8.1,8.1,0,0,1-.1-3.1c.2.4.3.8.5,1.3s.1-.8.1-1.2a4.2,4.2,0,0,0,.4,1.2,3,3,0,0,1,.2-1.3c0-.1.1-.3.2-.3s.2.3.3.4l1.1,2.6c.5,1.2,1.1,2.6.7,3.9a3.5,3.5,0,0,0-1-1.9,3.8,3.8,0,0,1,0,1.5.5.5,0,0,1-.4-.2,4.4,4.4,0,0,0-1-1.6v.9c.1.2.1.5.2.7a1.5,1.5,0,0,1,.5,1.3,5.6,5.6,0,0,1-1.5-1l-.6-.7-.4-.4c0,.1.1.2.1.4l.3,1.2a24.5,24.5,0,0,1,.2,2.7,5.1,5.1,0,0,0-1.6-2.1c-.2-.1-.4-.2-.4.1s0,.3,0,.4l.6,1.7a2.7,2.7,0,0,0-1.7-.6,10.2,10.2,0,0,1,.9,2.1l-1.4-1.3a6.3,6.3,0,0,1,1,2.5,3.1,3.1,0,0,1-1.6-1.9H231" fill="#fff" opacity="0.3"/></svg>
      </g>
    </svg>
  </svg>
    <svg xmlns="http://www.w3.org/2000/svg" width="500" height="600" style="overflow:visible">
    
    <svg viewBox="0 0 500 600" preserveAspectRatio="xMidYMin slice" width="500" height="600" style="overflow:visible">
      <g transform=" translate(250,300) scale(1) translate(-250,-300) translate(0,0)">
        <svg xmlns="http://www.w3.org/2000/svg" viewBox="0 0 500 600"><path d="M260.7,142.7a1,1,0,0,0-1-.6.8.8,0,0,0,.4.4,2.1,2.1,0,0,0-.4.6,10.6,10.6,0,0,1-6.5,4.1,24.1,24.1,0,0,1-6.6.2" fill="none" stroke="#000" stroke-linecap="round" stroke-linejoin="round"/><path d="M238.2,109.6a9.4,9.4,0,0,1,2.3,1,4.6,4.6,0,0,1,1.8,1.1c.3.4.4.9,0,1.2s-.6.2-.9,0l-2.9-1.5a11.9,11.9,0,0,0-3.2-1,17,17,0,0,0-3.9-.2,20,20,0,0,0-5.5,1.2h-.5c-.3-.1-.2-.5,0-.7l.3-.2a22.9,22.9,0,0,1,3.7-1.2,16.8,16.8,0,0,1,4.4-.4,10.1,10.1,0,0,1,2.5.2l1.9.4m-2.1.3h0m4.3.8h0" stroke="#000" stroke-miterlimit="10" stroke-width="0.5"/><path d="M259.8,104.3a8.4,8.4,0,0,0-2.4.7,6.3,6.3,0,0,0-2,1,.9.9,0,0,0-.1,1.2.9.9,0,0,0,.9.1l3.1-1.3a19.1,19.1,0,0,1,3.3-.6,12.8,12.8,0,0,1,3.9.1,20.7,20.7,0,0,1,5.3,1.8h.4a.4.4,0,0,0,.1-.7l-.2-.2a28.3,28.3,0,0,0-3.6-1.6,32.9,32.9,0,0,0-4.3-.9h-2.5a12.5,12.5,0,0,0-1.9.3m1.9.7h0m-4.2,1h-.1" stroke="#000" stroke-miterlimit="10" stroke-width="0.5"/><path d="M240.3,118.5a3.4,3.4,0,0,1-.9,1.4,3.4,3.4,0,0,1-1.2,1.2,6.3,6.3,0,0,1-4.1,1.3,8.9,8.9,0,0,1-4.7-1.4,6.8,6.8,0,0,1-2.1-1.7,3.3,3.3,0,0,1-.6-1,1.7,1.7,0,0,1,.1-1,3.6,3.6,0,0,1,.7-1,4.6,4.6,0,0,1,1.8-1.3,10.2,10.2,0,0,1,10.9,1.4c.2.1.3.2.3.4a1.3,1.3,0,0,1-.1.9C240.4,118,240.3,118.2,240.3,118.5Z" fill="#fff" stroke="#000" stroke-linecap="round" stroke-linejoin="round" stroke-width="0.75"/><ellipse cx="236.8" cy="117.3" rx="2.8" ry="3.3"/><ellipse cx="237.3" cy="116.4" rx="0.8" ry="1.4" fill="#fff"/><path d="M259,118.8a6,6,0,0,0,.8,1.6l1.2,1.3a6.5,6.5,0,0,0,4.2,1.3,9.2,9.2,0,0,0,4.7-1.4,11.9,11.9,0,0,0,2-1.9,3.9,3.9,0,0,0,.6-1.1,1.7,1.7,0,0,0-.1-1,7.5,7.5,0,0,0-.7-1.2,5.2,5.2,0,0,0-1.7-1.3,9.6,9.6,0,0,0-11,1.5c-.1.1-.3.2-.3.4s.1.7.1,1A2.4,2.4,0,0,0,259,118.8Z" fill="#fff" stroke="#000" stroke-linecap="round" stroke-linejoin="round" stroke-width="0.75"/><ellipse cx="268.5" cy="117.6" rx="2.8" ry="3.5"/><ellipse cx="268" cy="116.6" rx="0.8" ry="1.5" fill="#fff"/><path d="M246.5,116.4a22.2,22.2,0,0,1-.5,8.1c-.6,2.7-1.4,5.3-2.1,7.9a4.3,4.3,0,0,0-.1,2.5c.7,2.8,4.3,2.3,6.4,1.9" fill="none" stroke="#000" stroke-linecap="round" stroke-linejoin="round"/></svg>
      </g>
    </svg>
  </svg>
    <svg xmlns="http://www.w3.org/2000/svg" width="500" height="600" style="overflow:visible">
    
    <svg viewBox="0 0 500 600" preserveAspectRatio="xMidYMin slice" width="500" height="600" style="overflow:visible">
      <g transform=" translate(250,300) scale(1) translate(-250,-300) translate(0,0)">
        <svg xmlns="http://www.w3.org/2000/svg" viewBox="0 0 500 600"><path d="M265,161.4a14.9,14.9,0,0,1-1.5-2l-.2.3a9.2,9.2,0,0,0,.3-4.1,1.2,1.2,0,0,1-.7.7,5.6,5.6,0,0,1-1.7.9l-1.9.8-2.1.9a20.6,20.6,0,0,1-7,1.2,21.1,21.1,0,0,1-13.5-4h-.2l-.3-.2a4.5,4.5,0,0,0-.1,1.1c-.2,1.4-.9,3-.2,4.3s-3.9,6.3-3.7,7c2.2,1.1,10.2,8.5,12.8,5.4a29.7,29.7,0,0,1,2.4,4.7.6.6,0,0,1,.9.1l1.2-2.1s2.6,2,2.8,1.8l8.5-7.6C260.9,170.3,270.2,160.2,265,161.4Z" fill="#ffffff"/><path d="M160.9,243.6c.3,1.7,2.9,3.2,3.9,4.8s6.7,9,8.7,6.5c.3-1.2-1.1-.6-1.5-1.4-2-1.8-3.9-3.8-5.7-5.7s-3.7-5-5.4-4.2Z" fill="#171717"/><path d="M163.6,238c-.8.8.7,1.4,1.2,1.8a37.9,37.9,0,0,0,3.1,4.7c1.6,4,11.2,15,5.8,3.5h0a16.3,16.3,0,0,0,3.5,2.3c.4-.2.9,0,1.2-.4s0-.7-.1-1c-3.1-3.7-6.8-8.2-11-10.2-1.1-.4-2.5-1.3-3.7-.7Zm2.2,1.4-.4-.3a5.3,5.3,0,0,1,3.2,2.5C167.6,240.8,167,239.8,165.8,239.4Zm8.1,6.3-.5-.5a12.1,12.1,0,0,1,1.6,1.6l-1.1-1.1Zm-3-.3.2.3Z" fill="#171717"/><path d="M167.4,237.5c.7,3.3,10.4,5.4,9.8,12.8,0,.4.1.7.1,1,.3,2.7,1.8.6,1.1-1C178.6,244.6,173,238.5,167.4,237.5Z" fill="#171717"/><path d="M199,226c-1,.6-1.5,2-2.2,2.9-2.4,4.8-2.9,10.1-8.5,11.9s-7,7.3-11,10.5c-2.2,2.4-6.8,4.9-7.2,8,5.8-3.2,11.3-10.4,16.5-15.3,6-3.4,9.5-8.2,11.6-14.6a17.4,17.4,0,0,0,1.1-1.8c.6-.5.8-1.7-.3-1.6Zm-2,6h0C196.9,232.1,197,232,197,232Z" fill="#171717"/><path d="M197.4,225.2c-1.7.5-.6,2.6-.6,3.7l.3,3.1c.2-.5,1-3,1.2-2.3s-.2.4-.2.6h.1c.1-.7.5-2,1.4-1.4s-.1-.8-.2-1.3l-.3-1.6A1.3,1.3,0,0,0,197.4,225.2Z" fill="#171717"/><path d="M197.8,230.6Z" fill="#171717"/><path d="M197.1,233h0v-.2Z" fill="#171717"/><path d="M198.5,229.8h0Z" fill="#171717"/><path d="M199.8,239.5c.9-.1.2-1.9.3-2.6l-.3,2.6Z" fill="#171717"/><path d="M203.8,286.4c0,.1.1.2.1.3a1.4,1.4,0,0,0-.2-.6C203.8,286.2,203.7,286.3,203.8,286.4Z" fill="#171717"/><path d="M203.5,295.1c.7,1.5,1.2,4.7,3.5,4.1a1.3,1.3,0,0,0,.6-2.1c-.6,1.9-2.1,0-2.6-.9s-1.1-.8-1.6-1.3.1.1.1.2Z" fill="#171717"/><path d="M294.2,222c-.3,1.7-.8,3.3-1.2,4.9-1.8,9.7-8.4,17-13.1,25.4.3,9,7.4-2.4,8-5.7v.2c3.3-7.2,7.1-14.2,8.5-22.2C297.5,222.7,296,219.4,294.2,222Zm-12.8,30.5h0Z" fill="#171717"/><path d="M293,226.9c-10.4,20.1-.3,43.7-2.2,65.4h0c-.4,5.2-2.6,10-4.7,14.8,5.6,5.6,10.4-20.1,8.6-25.1C292.9,263.5,289.6,243.9,293,226.9Z" fill="#171717"/><path d="M332.6,244.1c-5,4.5-11.7,8.2-18.7,7.7a.8.8,0,0,0,.4,1.5,16.8,16.8,0,0,0,6.3-.7c-6.8,5.7.2,4.4,4.4,2.2h0c-15.3,9.7,5.2,3,7.3-1.3-3.7.6-7.6,4.6-11.7,5.4h0c3.7-3,7.9-4.8,11.8-7.3,3-4.6-11.7,4.6-13.7,4.2,2-3,5.3-4.5,8.5-6C328.4,249.3,336.4,244.5,332.6,244.1Zm-14.3,11.7Z" fill="#171717"/><path d="M149.8,248.5c-2.4,26.3,26.6,64.3,49.7,75,7.4,5.3,16.4,6.1,6.4-4h0c16.8,12.8,17.5,7.7,4.3-5.8h0c5.9,3.1,20.7,12.3,8.3-1.3a47.9,47.9,0,0,0-7.9-5.4h0c3.4-.3,11,2,13.1-.1-4-5.7-14.5-3.3-17.7-9.3-.6-.9-1.1-1.9-2.3-1-23.1,7.1-22.5-35.4-39.9-40.6-.5,2.7,3.6,4.9,4.8,7.4,10.6,11.2,14.9,44.2,35.8,35.2,3.1,5.5,11.2,3.8,15.9,7.3h0c-25.8-1.6-5.3,1.9.8,11.7-1.8-1-17.4-10.8-14.2-4.8,4.2,3.8,8.1,7.8,10.9,12.7-6-4-29.2-19.6-11.3-2.2-14.5-6.2-24.5-15.1-33.4-27.9s-21.8-28-21.4-45.6c.8-1.4-1.2-3-1.9-1.3Zm20,48.5.3.3Zm38.5,29h0Zm9.9.3h0Z" fill="#171717"/><path d="M320.4,262.1h0a2.1,2.1,0,0,0-1,1.3c-2.2,16.2-12.2,49.7-33.3,43.6a3.2,3.2,0,0,0-2.6,1c-4.4,8.2-12,15-19.9,19.3-.7,1,1.5,1.7.9,1.3s1.5-1.3,1.9-.5c5.4-3,9.9-7.5,14.1-11.8,2.8-2,3.7-8.7,8-6.4,17.7,6.7,34.5-33.4,33.2-47.3a1.2,1.2,0,0,0-1.3-.5Zm-1.8,7.6h0Z" fill="#171717"/><path d="M337.5,256.2a1.5,1.5,0,0,0-1.4,1.4c-.1,14.6-11.3,25.6-17.3,38-12,26.7-12,27.1-38.5,38.9h0c1.9-4.4,6.6-7,11-8.5,4.8-6.5-15.4,4-17.9,5h0a12.4,12.4,0,0,1,6.1-5.4h-.1c1.1-1,8.6-2.2,4.6-3.6-6.3.7-10.9,7.7-17.5,6.3-2.2,2.6,4.5,1.5,6,.7-4.1,7.5,6.5,1.1,9.4,0h0c-13.4,15.9,16-1.7,21.4-2.9C309.3,320.1,347.4,259.1,337.5,256.2Z" fill="#171717"/><path d="M264.9,158.4c-1.2.9.4,2.3-.5,3.5-3,6.3-8,10.9-12.8,15.8l-.6-.5c-4.6-5.9-14.5-3.3-18.2-9.6a6.8,6.8,0,0,1,3.1-7.1,1.7,1.7,0,0,1,1.2-1.1c-2.9-2.3-7.8,6.3-5.7,9.6,2.6,5.3,9.4,4.7,14,7.2s6.9,7.4,10.2,1.6c4.2-4.1,8.2-8.1,10.5-13.5.1-.2.5-1.2.2-.6.9-1.6,1.2-5.9-1.5-5.2Z" fill="#171717"/><path d="M229.6,165.4c-3.2,3.3-2.6,3.1.4.2-.5,2.4-6.6,4.9-6.5,8.3,7.1,5.8,18.3,7.9,22.8,16.8a2.2,2.2,0,0,0,3.6.8c2.8-4,3.8-9.3,5.7-13.8-1-4.3-4.2.8-4.7,2.8s-1.7,4.6-2.6,6.8h0c-2.3-4.3-6.8-6.8-10.9-8.9s-7.1-4.3-11-5.7h0l.4-.6c.9-2.3,5.9-4.6,5-6.7a.9.9,0,0,0-.7.1c-.5-.1-1-.7-1.5-.1Zm-3.7,8Z" fill="#171717"/><path d="M268.5,164.5a.9.9,0,0,0-.9,1,1,1,0,0,0,1.2.9c1.2,0,4.6.7,4,2-4.1,6.1-10.3,10.5-15.2,15.9-1.5-1.8-1.5-4.2-2-6.3-2.7-2.2-2.1,2.5-1.6,4,2,9.8,8.2,1.7,11.9-2.2s7.3-6.2,9.2-10.5-4.1-5-6.6-4.9Zm5,2.9h0Zm0,.8Zm-16.1,16.3Z" fill="#171717"/><path d="M282.1,305.1c-15.5,5-31.5,6.5-47.7,6-2.3.8-21.5-2.3-14.2,2.7,21,1.4,43.2,1.6,63.3-5.8h0c.8-.2,2-.1,2.3-1S283.5,305,282.1,305.1Z" fill="#171717"/><path d="M254.1,360.2a7,7,0,0,0-2,.8c-19.2,23.2-9.4,56.7-15.6,84.3-1.5,15.8-3.9,31.1-4.6,47,.3,12.9,4.3,25.7,4.2,38.7a22,22,0,0,1,.4,3.6h0c.7,2.7-.1,5.9,1.2,8.3.4-.8-.2-2.6,1-2.7s-.7,4.5,1.6,2.4c1.7-20.1-6.3-40-3.9-60.2,2.9-28.9,7.7-57.9,6.7-87,1.5-11.1,1.9-26.5,11.8-33.2,1.3-.5.4-2.6-.9-2Z" fill="#171717"/><path d="M239.1,543a.4.4,0,0,1-.1.3c.2,0,.1-.2.1-.3h0Z" fill="#171717"/><path d="M253.5,357.3c-3.1,17.5,7.4,39.2,8.9,58,4.1,37.9,8.9,75.7,12.4,113.4v-.5c.3,7.5-3.8,26.3,6.1,27.3,8.1-3.5,17.6-.3,25.5-3.5,3.4-.7,7.7-10.8,2-7.2-5.6,9.3-19.7,2.3-28.5,7.2-1-6.8-2.7-13.4-1-20.4a492,492,0,0,0-7.6-76.5C268.5,422.8,263,386.4,253.5,357.3Zm25.8,194.8Zm.8.7Z" fill="#171717"/><path d="M309.2,542.3h0Z" fill="#171717"/><path d="M209.8,548.5c-1.7.8-2.1,3.2-3.1,4.6h0c-3.8,8.8-14.8,11.3-19.1,19.2.9,15.6,25.3,4.2,31.7-2.9,1.6,8.2,10.7.5,15.6,0,6.8-2.7,6.1-14.8,3.2-19.8.2,3.9-2.2,3.9-1.4,0-2.5.9-1.1,4.3-1.2,6.4,2.3,8.6-3.7,10.3-10.6,12.2-4.5,1.5.7-10.6-12.2,1.3-5.9,4.3-14.4,9-21.7,5.2.2-6.4,10.2-8.5,13.5-13.9,2.8-3.3,5.8-7.2,6.8-11.3A1.3,1.3,0,0,0,209.8,548.5Zm13.6,20.6-32.6,5.4a.1.1,0,0,1,.1.1A.1.1,0,0,0,190.8,574.5Z" fill="#171717"/><path d="M307.8,548.7c-1.6.2-1.9,1.9-1.4,3.2h0c2.5,9.2,13.5,13.5,15,23.2h0c4.7,20.2-22.7-8.4-29.2-10.7-3.5-3.1-11.6,3-10.8-3.6.3-2.5-.6-11-4.2-6.9,1.2,4.2-.7,10,2.7,13.2,15.1-1.3,23.6,13.2,36.6,19.2,23.7,4-2.1-33.1-8.7-37.6Zm-26.1,15.1h0Zm40,18.3h0Zm.1,0h0Z" fill="#171717"/><path d="M237.6,530.3a5.1,5.1,0,0,0-1.5.7c-7.4,5.2-17.5.5-25.1,4.4-12.7,9.7,4.1,15.6,12.2,10.8-.6-4.7-10.2.1-12.7-2.8-.6-11,19.7-3,26.1-8.8h0c2.1-.5,4.5-4.1,1-4.3Z" fill="#171717"/><path d="M309.1,530.5h-.8c-7.2.8-14.5,2.6-21.7,2.8s-11.4-4.6-9.7,7.5c3.2,16.7,13.3,11.6,25.5,8.4C310.9,550.2,320.6,531.6,309.1,530.5Zm.5,3.5h0Zm.1.2c1.8,1.6.2,4.3-.8,6-2.1,7.2-10.3,5.5-16,8.1-9.6,5.2-12.7-4.4-13.2-12.4,9.5,2.8,19.4-.8,29-1.7h0A3.3,3.3,0,0,1,309.7,534.2Z" fill="#171717"/><path d="M246.3,190.7c-4.5-8.8-15.7-11-22.8-16.8-10.9,6.6-23.2,11.4-33.7,18.7a287.1,287.1,0,0,1-20,24.1c-3.2,4.7-3.6,10.7-7.4,15.1s-8.2,9.2-10.8,14.7c2,2.4,5.8,2.9,8.6,4.4s5.7,3.8,8.9,5.1c.5-.8-.8-2.4.4-2.7-2.2-1.8-3.6-3.9-5.5-5.8s-3-2.4-3.1-3.9c1.7-.8,3.9,3.2,5.4,4.2s3.7,3.9,5.6,5.6,1.9.3,1.6,1.4c3.7-3.6,5.7-3.6.2-6.8.6,1.4,1.6,2.7,1.9,4.2-3.5,2.5-6.1-6.8-8.5-8.8s-1.5-2.7-2.3-3.6c-3.5-2.1.8-2.5,2.6-1.1-1.2-2.3,2.1-.9,3-.3,4.3,2.4,8.3,7,8.1,11.9,4.5-5.2,9.8-9.2,15.1-13.3,1.2-3.8,3.5-7.3,3-11.3.9-1.4,2.9,0,3.3.9a2.6,2.6,0,0,0,0,2.9c2.5,17,.5,38.6,4,57.2,1.3,3.7,5.6,9.2,3.1,12.5,10.2,4.5,29.8,10.1,3.7,7.8a47.4,47.4,0,0,1,7.9,5.3c.6-3.5,5.8-.3,8.4-1.1,10.4-.3,21,.4,31.3-1,5,1.2,27.5-8.7,27.4-3.3,2.9-3.7,4.5-9.7,5.2-14.7h-.1c.8-15.2-1.9-30.3-3-45.4-1.5,2.9-2.4,7-5.6,8.6s-2.8-3.6-1.3-5.3,4.2-5.9,6-8.9,9.6-30.1,9.4-16.7c5.7,1.6,6.6,11.3,10.3,15.8s6.8,6.5,7.3,11.5c6.7.3,13.3-3,18.2-7.4,1.7-1.6,1.9.9.5,1.7a19.9,19.9,0,0,1-3.3,2.4c-3.7,2.3-8.2,3.4-10.7,7.2,2,.4,16.8-8.8,13.7-4.2-3.9,2.5-8.1,4.3-11.8,7.3a48.5,48.5,0,0,0,10.9-5.5c3.2,1.1-9.4,6.4-11.2,6.6-2.7-1.6,3.3-3.9,4.7-5.2-4.2,2.3-11.1,3.5-4.3-2.2a17.3,17.3,0,0,1-6.4.7,29.6,29.6,0,0,0,2.5,7.8v-.2c.4,1.7,2.2,4.1,3.3,1.5a1.3,1.3,0,0,1,1.9.2,35.9,35.9,0,0,0,3.4-1.7c11.2-4.3,12.5-9.7,7-19.9v.2c-17.8-27.3-20.4-63.2-57.2-71.9-2,4.5-6.1,7.6-9.5,11s-9.7,11.1-11.6,1.7c-1.8,3.2-1.7,9.9-6.1,10.1" fill="#fafafa"/><path d="M206.6,292.8h0Z" fill="#fafafa"/><path d="M257.7,184.3c4.8-5.4,11-9.8,15.2-15.9-2.6-1.1-5-2-6.8-4.2-1.9,7.9-13,11.2-9.5,18.4" fill="#fafafa"/><path d="M231.4,168.9c-1.6,1.5-3.6,2.2-5.1,3.8,7.7,3.8,17.1,7.2,22,14.6C256.7,173.1,236,177.6,231.4,168.9Z" fill="#fafafa"/><path d="M283.5,308c-20.1,7.4-42.3,7.3-63.4,5.8,9.6,12-5.4,1.9-9.8-.1,13.2,13.6,12.4,18.5-4.3,5.8,10,10.1,1,9.3-6.4,4-4.2,16.8,1,33.7,2.9,50.4s1.2,33.8,1.6,50.9,4.9,33.3,4.6,50.4c.6,14.4,6.1,29,.4,42.9-1.3,3.4-.5,6.1,1.8,8.7.8,3.1-1.3,6.3-1.4,9.4,7.8-5.3,18.7.3,26.7-5.2-1.4-8.3.1-16.5-2.7-24.8-3.5-12.7-.3-25.9.7-38.7,1.3-15.1,3.7-30.8,4.8-46,1.4-20.8-.5-51.1,15.9-63.9,12.5,56.7,21.7,115.7,24.1,174,8.5,3.9,21.2.3,29.3-1.6.2-25.7-.3-50.8-3.9-76.4s-5.3-52.4-7.5-78.8c-2.2-14.5-8-29-6.1-43.8-5.4,4-18.5,9.3-8.8-1.9-2.8,1-13.6,7.5-9.4-.1-1.4.8-8.2,2-6-.7V328c-.7-1-3.6-.2-1.6.6-4.4-1.5,4.7-3.7,5.6-5.9C275.6,318.6,280.6,313.9,283.5,308Z" fill="#3a4e5c"/><path d="M151.7,249.8c-.4,17.2,11.1,31.5,20.6,44.6s19.7,22.9,34.2,28.9c-17.8-17.3,5.3-1.9,11.3,2.3-2.8-5-6.7-9-10.9-12.7-3.2-6.1,12.4,3.7,14.2,4.7-6.1-9.8-26.6-13.3-.8-11.7-4.7-3.4-12.8-1.8-15.9-7.3-21.7,9-25.5-25.8-37.2-36.9-.9-1.9-4.2-3.5-3.4-5.7C160.2,253.5,155.5,251.9,151.7,249.8Z" fill="#ffffff"/><path d="M336.1,257.6c-3.6,5.4-14.8,4.5-14.7,11.6-2.8,15.2-11.3,33.8-25.6,41.3-19.3-.9-3.6-2.6-24.3,14.1-2.8,2.6-9,5-.5,3.6,4.2-1.4,7.3-4.7,11.7-5.8,1.1-.6,3.6-.1,2,1.3a22,22,0,0,0-5.4,2h.2a12.3,12.3,0,0,0-6.1,5.4c2.4-.9,22.7-11.5,17.9-5-4.4,1.5-9.2,4.1-11,8.5,26.7-11.7,26.6-12.7,38.7-39.3,5.9-12.2,17-23.2,17.1-37.5Z" fill="#ffffff"/><path d="M206.5,230c-.4.6-2.3,1.7-1.8,2.1s2.5-1.9,1.8-2.1Z" fill="#171717"/><path d="M199.1,226.5c-1.9,9.4,2.2,19.4,2.8,28.8s.8,21,1.8,31.4c.6,3-1,9.6,2.5,10.6,2.8-11.4-2.7-25.4-1.9-37.8,4.4-1.5-6.2-24.5-4.5-31.6.3.5,1.4,2.5,1.5,1s-1-2.9-2.2-2.4Z" fill="#171717"/><path d="M236.6,534.6c-6.7,5.9-25.4-2.3-26.2,8.4,1.9,3.8,12.3-1.7,12.8,3.1,5.1.8,11-.5,15.3-1.1,1.7-2.5.3-8-.7-2.2C236.4,540.5,237.3,537.1,236.6,534.6Z" fill="#3a4e5c"/><path d="M308.7,534.3c-7.1.8-14,2.4-21.1,2.7-8.9-.7-9.9-1.9-5.8,7.3,2,9.9,10.8,3.4,17.1,2.3s11.4-4.9,9.8-12.3Z" fill="#3a4e5c"/><path d="M281.3,536.8c-3,1.4-.9,6.1-1.4,8.8s-.9,7.2,3.2,5.6c6-3.1,23-3.9,25-9.4-3.5-2.6-9.1,1.7-13.2,2.2-2.9-2.1-7.7,2.3-11.3,1.5-.8-2.6,1.5-8.4-2.3-8.6Z" fill="#3a4e5c"/><path d="M237.5,547.6c-4.2,2.4-10.6,1.9-15.6,1.5-3.4-.4-7.2-.7-10.6.3.3.8-.4,1.6-.7,2.3-3.3,10.3-15.3,14-19.8,22.4,9.7,6.5,20.8-4.2,28.5-9.7,4.4-1.8,2.6,6.2,6.1,3.6,17.1-3.2,6.3-9.3,11.4-18.5-.3,1-.3,4.5,1.1,2.4C237.7,550.7,239,548,237.5,547.6Z" fill="#565656"/><path d="M306.4,551.9c-7.9,3.2-17.3.1-25.5,3.5,1.3,3.2-1.5,10.5,4.3,8.3,14.2-1.7,22.6,18.4,36.3,18.7a9.5,9.5,0,0,0-.1-7.4v.2c-1.6-10-12.4-13.9-15.1-23.3h.1Z" fill="#565656"/><path d="M288.5,330.7c-13.5,11,5.3,56.8,4.1,76.4,1.8,27,7.4,53.5,7.7,80.7,2.4,9.2-1.1,53.6,5.4,54.2,9.4,28.2-1-93.1-3.4-99.3-7.5-35.3-.9-81.2-13.8-112Z" fill="#3a4e5c" opacity="0.33" style="isolation:isolate"/><path d="M245,353c-18.9,20.9-14.2,85.3-20.5,115.5-.9,11,.1,87,15.3,78.5-10.3-40-5.2-82.1-.2-122.9,1.6-20.2,3.4-40.7,9-60.2.5-4.6,6.5,2.4,8.2-2.1S248.3,352.4,245,353Zm-6.7,81.8v0Z" fill="#3a4e5c" opacity="0.33" style="isolation:isolate"/><path d="M197.2,215.2c-11.2,7.4-11.2,47.6,1.1,12.6l-.2.6.2-.7c9.3,22.7,3.1,46.8,7.8,69.7,3.5,8.1,14,2.6,6.4-3.7-3.3-11,4.1-20.2,1.3-31C214.1,246.4,219,216,197.2,215.2Z" fill="#fafafa" opacity="0.33" style="isolation:isolate"/><path d="M262.9,166.8a3.6,3.6,0,0,0,2.9,4.3c12.9,4,23.6,14.3,33.6,23,6.8,8.8,26.4,60.2,36.6,58.1,5.3-16.2-15.4-31.3-19.6-46.9-1.1-13.3-43.6-50-53.5-38.5Z" fill="#fafafa" opacity="0.33" style="isolation:isolate"/><path d="M292.3,223.8c-1.1,12.2-16.2,20.9-16.6,31.6C279.7,256.8,303.1,221.8,292.3,223.8Z" fill="#fafafa" opacity="0.33" style="isolation:isolate"/><path d="M223.1,173.2c-28.5,8.9-49.4,36-63.4,60.7-1.7,4.2-12.5,12.8-7.4,15.8,19.1-26.4,37.9-55.7,68.5-70.4C223.2,178.7,227.4,173.3,223.1,173.2Z" fill="#fafafa" opacity="0.33" style="isolation:isolate"/><path d="M335.8,256.2c-2.7,3.3-2.7,8.5-4.8,12.4-.5,2.8-7.4,8.3-3.5,9.9-11.6,14-16.7,34.1-31.2,44.9-5,2.6-16.8,4.8-15.7,11.5,8.6-7.1,23.4-7.4,29.3-19.1S347.5,265.9,335.8,256.2Z" fill="#ffffff" opacity="0.33" style="isolation:isolate"/><path d="M150.9,250.7a4.1,4.1,0,0,1-.1,1.1v-.2c1.8,20.7,34.4,72.3,54.1,69.5-25.5-13.8-43.2-42.5-50.6-69.9a1.7,1.7,0,1,0-3.4-.4Z" fill="#ffffff" opacity="0.33" style="isolation:isolate"/><path d="M171.2,257c-4.2.8-23.6-14-21-8.3C153.4,250.5,171.6,262.8,171.2,257Z"/><path d="M338.7,257c-.4-7.6-9.7,7.7-17.5,5.9-4.7,5.6,14.8-2.1,15.5-5.6C336.9,258.6,339.1,258.3,338.7,257Z"/><path d="M250,195.4s-.3,82-1.4,94.9l-1,12.8" fill="none" stroke="#000" stroke-miterlimit="10"/></svg>
      </g>
    </svg>
  </svg>

      </g>
    </svg>
  </svg>